<svg id="Layer_35" enable-background="new 0 0 64 64" height="512" viewBox="0 0 64 64" width="512" xmlns="http://www.w3.org/2000/svg" xmlns:xlink="http://www.w3.org/1999/xlink"><linearGradient id="SVGID_1_" gradientUnits="userSpaceOnUse" x1="32" x2="32" y1="63" y2="1"><stop offset="0" stop-color="#9f2fff"/><stop offset="1" stop-color="#0bb1d3"/></linearGradient><path d="m58 59h-4v-2h4zm0-6h-4v2h4zm-52-18h4v-2h-4zm0-4h4v-2h-4zm37-30h20v14h-20v-6h-4c-1.654 0-3 1.346-3 3v6h7c1.654 0 3 1.346 3 3v2c0 1.654-1.346 3-3 3h-.184c.112.314.184.648.184 1s-.072.686-.184 1h.184c1.654 0 3 1.346 3 3h5v-6h12v14h-12v-6h-5c0 1.654-1.346 3-3 3h-.184c.112.314.184.648.184 1s-.072.686-.184 1h.184c1.654 0 3 1.346 3 3v2c0 1.654-1.346 3-3 3h-7v6c0 1.654 1.346 3 3 3h10.08c.488-3.387 3.401-6 6.92-6 3.859 0 7 3.14 7 7s-3.141 7-7 7c-3.519 0-6.432-2.613-6.92-6h-10.08c-2.757 0-5-2.243-5-5v-6h-4v6c0 2.757-2.243 5-5 5h-4v6h-20v-14h20v6h4c1.654 0 3-1.346 3-3v-6h-7c-1.654 0-3-1.346-3-3v-2c0-1.654 1.346-3 3-3h.184c-.112-.314-.184-.648-.184-1s.072-.686.184-1h-.184c-1.654 0-3-1.346-3-3h-3.08c-.488 3.387-3.401 6-6.92 6-3.859 0-7-3.14-7-7s3.141-7 7-7c3.519 0 6.432 2.613 6.92 6h3.08c0-1.654 1.346-3 3-3h.184c-.112-.314-.184-.648-.184-1s.072-.686.184-1h-.184c-1.654 0-3-1.346-3-3v-2c0-1.654 1.346-3 3-3h7v-5c0-1.654-1.346-3-3-3h-5.666l-8.334 6.25-9.667-7.25 9.667-7.25 8.334 6.25h5.666c2.757 0 5 2.243 5 5v5h4v-6c0-2.757 2.243-5 5-5h4zm-25.667 8-6.333-4.75-6.333 4.75 6.333 4.75zm-4.333 23c0-2.757-2.243-5-5-5s-5 2.243-5 5 2.243 5 5 5 5-2.243 5-5zm6 19h-16v10h16zm32 5c0 2.757 2.243 5 5 5s5-2.243 5-5-2.243-5-5-5-5 2.243-5 5zm2-19h8v-10h-8zm-10 3h-3-16-3c-.552 0-1 .449-1 1v2c0 .551.448 1 1 1h22c.552 0 1-.449 1-1v-2c0-.551-.448-1-1-1zm-3-4h-16c-.552 0-1 .449-1 1s.448 1 1 1h16c.552 0 1-.449 1-1s-.448-1-1-1zm3-6h-3-16-3c-.552 0-1 .449-1 1v2c0 .551.448 1 1 1h3 16 3c.552 0 1-.449 1-1v-2c0-.551-.448-1-1-1zm-3-4h-16c-.552 0-1 .449-1 1s.448 1 1 1h16c.552 0 1-.449 1-1s-.448-1-1-1zm3-6h-22c-.552 0-1 .449-1 1v2c0 .551.448 1 1 1h3 16 3c.552 0 1-.449 1-1v-2c0-.551-.448-1-1-1zm2-7h16v-10h-16zm-38 40h-2v2h2zm4 0h-2v2h2zm6 0h-4v2h4zm0 4h-12v2h12zm30-50h12v-2h-12zm0 4h12v-2h-12zm-39-1h6v-2h-6zm47 21h4v-2h-4zm0 4h4v-2h-4z" fill="url(#SVGID_1_)"/></svg>